<?xml version="1.0" encoding="utf-8"?>
<!-- Generator: Adobe Illustrator 21.1.0, SVG Export Plug-In . SVG Version: 6.00 Build 0)  -->
<svg version="1.1" id="Layer_1" xmlns="http://www.w3.org/2000/svg" xmlns:xlink="http://www.w3.org/1999/xlink" x="0px" y="0px"
	 viewBox="0 0 50 50" style="enable-background:new 0 0 50 50;" xml:space="preserve">
<style type="text/css">
	.st0{fill:#EBEBEB;}
	.st1{fill:#F36F21;}
</style>
<rect class="st0" width="50" height="50"/>
<g>
	<polygon class="st1" points="50,27.5 25,25 50,22.5 	"/>
</g>
<g>
	<path class="st1" d="M25,15c1,1.7,1.6,3.3,2,5c0.4,1.7,0.5,3.3,0.5,5c0,1.7-0.2,3.3-0.5,5c-0.4,1.7-0.9,3.3-2,5c-1-1.7-1.6-3.3-2-5
		c-0.4-1.7-0.5-3.3-0.5-5c0-1.7,0.2-3.3,0.5-5C23.4,18.3,24,16.7,25,15z"/>
</g>
</svg>
