<svg id="Layer_1" data-name="Layer 1" xmlns="http://www.w3.org/2000/svg" xmlns:xlink="http://www.w3.org/1999/xlink" viewBox="0 0 300 300"><defs><style>.cls-1{fill:#181818;}.cls-2{clip-path:url(#clip-path);}.cls-3{fill:#a71f23;}</style><clipPath id="clip-path"><path id="_Clipping_Path_" data-name="&lt;Clipping Path&gt;" class="cls-1" d="M19,199.71a41,41,0,0,1-5.49-6,30.4,30.4,0,0,1-3.77-7,26,26,0,0,1-1.69-7.91,30.77,30.77,0,0,1,.73-8.75,43.16,43.16,0,0,1,3.42-9.34l1.26-2.39a13.83,13.83,0,0,1,.7-1.2l.75-1.2c.94-1.61,2.16-3.19,3.31-4.8.6-.8,1.28-1.59,1.92-2.38l1-1.19c.34-.4.71-.78,1.06-1.18L24.33,144l2.33-2.31c.39-.39.78-.78,1.18-1.16l1.25-1.13c.84-.75,1.67-1.52,2.53-2.26L34.28,135c.45-.37.88-.74,1.35-1.1l1.4-1.07c.94-.71,1.86-1.44,2.82-2.14l2.93-2.07c.49-.34,1-.7,1.48-1l1.52-1c1-.66,2-1.34,3.05-2L52,122.64l1.57-1,1.6-.92,3.22-1.84c1.09-.6,2.19-1.17,3.28-1.76,2.19-1.2,4.43-2.28,6.67-3.4,1.12-.57,2.25-1.08,3.39-1.61l3.41-1.58,3.45-1.5c1.15-.5,2.3-1,3.46-1.47,2.32-.94,4.65-1.91,7-2.78a301,301,0,0,1,56.9-15.4c9.44-1.59,18.78-2.72,28-3.39a262.31,262.31,0,0,1,27-.63c17.56.54,34.23,3,48.95,7.88.92.31,1.85.61,2.75.93l2.67,1c1.8.66,3.48,1.45,5.2,2.2.87.37,1.69.79,2.51,1.2l2.46,1.25c.81.43,1.58.9,2.36,1.35s1.59.89,2.32,1.4l2.23,1.49c.37.25.75.49,1.1.76l1,.8,2.09,1.62c.66.56,1.31,1.15,2,1.73a49,49,0,0,1,3.67,3.67,11.35,11.35,0,0,1,.84,1l.8,1,.8,1a11.06,11.06,0,0,1,.76,1,37.11,37.11,0,0,1,6.91,19.8c.48,7.55-1.71,16.35-6.05,25.05H226.82a26.76,26.76,0,0,0,5-9.92,17.91,17.91,0,0,0,.34-6.86,21.8,21.8,0,0,0-.79-3.52,3.43,3.43,0,0,0-.23-.64l-.26-.64-.25-.64a3.57,3.57,0,0,0-.29-.64,23.39,23.39,0,0,0-1.4-2.51l-.79-1.24-.93-1.2-.46-.61c-.15-.2-.35-.39-.52-.58l-1.05-1.17A46.86,46.86,0,0,0,214,123.08c-8.81-4.93-20.11-8.49-32.94-10.53a171.91,171.91,0,0,0-20.32-2,209.15,209.15,0,0,0-22,.32,228.86,228.86,0,0,0-47,8.15c-2,.53-4,1.17-6,1.78-1,.29-2,.63-3,1l-3,1L77,123.86c-1,.36-2,.7-2.93,1.09-1.93.77-3.9,1.51-5.8,2.34-1,.41-1.93.81-2.88,1.23l-2.83,1.3-1.42.65-1.39.69-2.79,1.38L54.21,134l-1.37.73c-.46.24-.88.5-1.33.76L48.86,137c-.87.52-1.71,1.06-2.57,1.59l-1.29.8c-.43.27-.83.55-1.24.83l-2.48,1.67c-.8.57-1.58,1.15-2.38,1.73l-1.19.87-1.13.89-2.26,1.8L32.19,149c-.35.31-.72.62-1.06.93l-1,1c-.65.64-1.35,1.27-2,1.92-1.2,1.3-2.51,2.61-3.57,3.95l-.84,1c-.28.33-.57.67-.81,1l-1.51,2a50,50,0,0,0-4.77,8.28,35.85,35.85,0,0,0-2.55,8.26,28.42,28.42,0,0,0-.36,8,29.81,29.81,0,0,0,1.71,7.5A36.09,36.09,0,0,0,19,199.71Z"/></clipPath></defs><title>logo</title><path id="_Clipping_Path_2" data-name="&lt;Clipping Path&gt;" class="cls-1" d="M19,199.71a41,41,0,0,1-5.49-6,30.4,30.4,0,0,1-3.77-7,26,26,0,0,1-1.69-7.91,30.77,30.77,0,0,1,.73-8.75,43.16,43.16,0,0,1,3.42-9.34l1.26-2.39a13.83,13.83,0,0,1,.7-1.2l.75-1.2c.94-1.61,2.16-3.19,3.31-4.8.6-.8,1.28-1.59,1.92-2.38l1-1.19c.34-.4.71-.78,1.06-1.18L24.33,144l2.33-2.31c.39-.39.78-.78,1.18-1.16l1.25-1.13c.84-.75,1.67-1.52,2.53-2.26L34.28,135c.45-.37.88-.74,1.35-1.1l1.4-1.07c.94-.71,1.86-1.44,2.82-2.14l2.93-2.07c.49-.34,1-.7,1.48-1l1.52-1c1-.66,2-1.34,3.05-2L52,122.64l1.57-1,1.6-.92,3.22-1.84c1.09-.6,2.19-1.17,3.28-1.76,2.19-1.2,4.43-2.28,6.67-3.4,1.12-.57,2.25-1.08,3.39-1.61l3.41-1.58,3.45-1.5c1.15-.5,2.3-1,3.46-1.47,2.32-.94,4.65-1.91,7-2.78a301,301,0,0,1,56.9-15.4c9.44-1.59,18.78-2.72,28-3.39a262.31,262.31,0,0,1,27-.63c17.56.54,34.23,3,48.95,7.88.92.31,1.85.61,2.75.93l2.67,1c1.8.66,3.48,1.45,5.2,2.2.87.37,1.69.79,2.51,1.2l2.46,1.25c.81.43,1.58.9,2.36,1.35s1.59.89,2.32,1.4l2.23,1.49c.37.25.75.49,1.1.76l1,.8,2.09,1.62c.66.56,1.31,1.15,2,1.73a49,49,0,0,1,3.67,3.67,11.35,11.35,0,0,1,.84,1l.8,1,.8,1a11.06,11.06,0,0,1,.76,1,37.11,37.11,0,0,1,6.91,19.8c.48,7.55-1.71,16.35-6.05,25.05H226.82a26.76,26.76,0,0,0,5-9.92,17.91,17.91,0,0,0,.34-6.86,21.8,21.8,0,0,0-.79-3.52,3.43,3.43,0,0,0-.23-.64l-.26-.64-.25-.64a3.57,3.57,0,0,0-.29-.64,23.39,23.39,0,0,0-1.4-2.51l-.79-1.24-.93-1.2-.46-.61c-.15-.2-.35-.39-.52-.58l-1.05-1.17A46.86,46.86,0,0,0,214,123.08c-8.81-4.93-20.11-8.49-32.94-10.53a171.91,171.91,0,0,0-20.32-2,209.15,209.15,0,0,0-22,.32,228.86,228.86,0,0,0-47,8.15c-2,.53-4,1.17-6,1.78-1,.29-2,.63-3,1l-3,1L77,123.86c-1,.36-2,.7-2.93,1.09-1.93.77-3.9,1.51-5.8,2.34-1,.41-1.93.81-2.88,1.23l-2.83,1.3-1.42.65-1.39.69-2.79,1.38L54.21,134l-1.37.73c-.46.24-.88.5-1.33.76L48.86,137c-.87.52-1.71,1.06-2.57,1.59l-1.29.8c-.43.27-.83.55-1.24.83l-2.48,1.67c-.8.57-1.58,1.15-2.38,1.73l-1.19.87-1.13.89-2.26,1.8L32.19,149c-.35.31-.72.62-1.06.93l-1,1c-.65.64-1.35,1.27-2,1.92-1.2,1.3-2.51,2.61-3.57,3.95l-.84,1c-.28.33-.57.67-.81,1l-1.51,2a50,50,0,0,0-4.77,8.28,35.85,35.85,0,0,0-2.55,8.26,28.42,28.42,0,0,0-.36,8,29.81,29.81,0,0,0,1.71,7.5A36.09,36.09,0,0,0,19,199.71Z"/><path id="_Clipping_Path_3" data-name="&lt;Clipping Path&gt;" class="cls-1" d="M19,199.71a41,41,0,0,1-5.49-6,30.4,30.4,0,0,1-3.77-7,26,26,0,0,1-1.69-7.91,30.77,30.77,0,0,1,.73-8.75,43.16,43.16,0,0,1,3.42-9.34l1.26-2.39a13.83,13.83,0,0,1,.7-1.2l.75-1.2c.94-1.61,2.16-3.19,3.31-4.8.6-.8,1.28-1.59,1.92-2.38l1-1.19c.34-.4.71-.78,1.06-1.18L24.33,144l2.33-2.31c.39-.39.78-.78,1.18-1.16l1.25-1.13c.84-.75,1.67-1.52,2.53-2.26L34.28,135c.45-.37.88-.74,1.35-1.1l1.4-1.07c.94-.71,1.86-1.44,2.82-2.14l2.93-2.07c.49-.34,1-.7,1.48-1l1.52-1c1-.66,2-1.34,3.05-2L52,122.64l1.57-1,1.6-.92,3.22-1.84c1.09-.6,2.19-1.17,3.28-1.76,2.19-1.2,4.43-2.28,6.67-3.4,1.12-.57,2.25-1.08,3.39-1.61l3.41-1.58,3.45-1.5c1.15-.5,2.3-1,3.46-1.47,2.32-.94,4.65-1.91,7-2.78a301,301,0,0,1,56.9-15.4c9.44-1.59,18.78-2.72,28-3.39a262.31,262.31,0,0,1,27-.63c17.56.54,34.23,3,48.95,7.88.92.31,1.85.61,2.75.93l2.67,1c1.8.66,3.48,1.45,5.2,2.2.87.37,1.69.79,2.51,1.2l2.46,1.25c.81.43,1.58.9,2.36,1.35s1.59.89,2.32,1.4l2.23,1.49c.37.25.75.49,1.1.76l1,.8,2.09,1.62c.66.56,1.31,1.15,2,1.73a49,49,0,0,1,3.67,3.67,11.35,11.35,0,0,1,.84,1l.8,1,.8,1a11.06,11.06,0,0,1,.76,1,37.11,37.11,0,0,1,6.91,19.8c.48,7.55-1.71,16.35-6.05,25.05H226.82a26.76,26.76,0,0,0,5-9.92,17.91,17.91,0,0,0,.34-6.86,21.8,21.8,0,0,0-.79-3.52,3.43,3.43,0,0,0-.23-.64l-.26-.64-.25-.64a3.57,3.57,0,0,0-.29-.64,23.39,23.39,0,0,0-1.4-2.51l-.79-1.24-.93-1.2-.46-.61c-.15-.2-.35-.39-.52-.58l-1.05-1.17A46.86,46.86,0,0,0,214,123.08c-8.81-4.93-20.11-8.49-32.94-10.53a171.91,171.91,0,0,0-20.32-2,209.15,209.15,0,0,0-22,.32,228.86,228.86,0,0,0-47,8.15c-2,.53-4,1.17-6,1.78-1,.29-2,.63-3,1l-3,1L77,123.86c-1,.36-2,.7-2.93,1.09-1.93.77-3.9,1.51-5.8,2.34-1,.41-1.93.81-2.88,1.23l-2.83,1.3-1.42.65-1.39.69-2.79,1.38L54.21,134l-1.37.73c-.46.24-.88.5-1.33.76L48.86,137c-.87.52-1.71,1.06-2.57,1.59l-1.29.8c-.43.27-.83.55-1.24.83l-2.48,1.67c-.8.57-1.58,1.15-2.38,1.73l-1.19.87-1.13.89-2.26,1.8L32.19,149c-.35.31-.72.62-1.06.93l-1,1c-.65.64-1.35,1.27-2,1.92-1.2,1.3-2.51,2.61-3.57,3.95l-.84,1c-.28.33-.57.67-.81,1l-1.51,2a50,50,0,0,0-4.77,8.28,35.85,35.85,0,0,0-2.55,8.26,28.42,28.42,0,0,0-.36,8,29.81,29.81,0,0,0,1.71,7.5A36.09,36.09,0,0,0,19,199.71Z"/><g class="cls-2"><polygon class="cls-3" points="49.19 158.52 308.56 159.28 309.32 118.09 19.01 199.71 28.6 176.06 49.19 158.52"/></g><path class="cls-3" d="M286.36,161.57H55.06l3.52-6.1h231.3c1.6,0,2.14,1.29,1.22,2.89l-.19.33A6,6,0,0,1,286.36,161.57Z"/><path class="cls-1" d="M63.72,178.37,65.44,170l-4.82,8.34H53.21L62,163.22H72.49l-1.32,6.29,5.92-6.29H87.64L78.9,178.37H71.47L76.28,170l-7.89,8.34Z"/><path class="cls-1" d="M85.72,178.48a10.42,10.42,0,0,1-2.24-.2,2.08,2.08,0,0,1-1.2-.63,1.35,1.35,0,0,1-.22-1.13,5.55,5.55,0,0,1,.7-1.68l4.9-8.49a5.84,5.84,0,0,1,2.63-2.46,10.28,10.28,0,0,1,4.3-.76h8.69a12.48,12.48,0,0,1,2.33.18,2.63,2.63,0,0,1,1.31.57,1.15,1.15,0,0,1,.35,1,3.89,3.89,0,0,1-.56,1.47l-4.9,8.49a6.87,6.87,0,0,1-2.8,2.84,6.76,6.76,0,0,1-2,.61,16,16,0,0,1-2.64.2Zm9.65-10.84-3.64,6.31q-.33.58-.24.83c.07.17.29.25.66.25a1.77,1.77,0,0,0,1-.25,2.34,2.34,0,0,0,.73-.83l3.64-6.31q.64-1.1-.43-1.1a1.7,1.7,0,0,0-1,.26A2.46,2.46,0,0,0,95.37,167.64Z"/><path class="cls-1" d="M105.61,178.37l6.76-11.7h-4.28l2-3.45h16.83l-2,3.45h-4.28l-6.76,11.7Z"/><path class="cls-1" d="M124.82,178.48a10.41,10.41,0,0,1-2.24-.2,2.08,2.08,0,0,1-1.2-.63,1.35,1.35,0,0,1-.22-1.13,5.54,5.54,0,0,1,.7-1.68l4.9-8.49a5.84,5.84,0,0,1,2.63-2.46,10.28,10.28,0,0,1,4.3-.76h8.69a12.47,12.47,0,0,1,2.33.18,2.62,2.62,0,0,1,1.31.57,1.15,1.15,0,0,1,.35,1,3.93,3.93,0,0,1-.56,1.47l-4.9,8.49a6.87,6.87,0,0,1-2.8,2.84,6.77,6.77,0,0,1-2,.61,16,16,0,0,1-2.64.2Zm9.66-10.84-3.64,6.31q-.33.58-.24.83c.07.17.29.25.66.25a1.77,1.77,0,0,0,1-.25,2.33,2.33,0,0,0,.73-.83l3.64-6.31q.64-1.1-.43-1.1a1.69,1.69,0,0,0-1,.26A2.46,2.46,0,0,0,134.47,167.64Z"/><path class="cls-1" d="M151.13,178.37l3-5.17c.23-.4.31-.68.23-.84s-.34-.24-.81-.24h-.92L149,178.37h-8.33l8.75-15.15h13.49a11,11,0,0,1,2.35.21,2.52,2.52,0,0,1,1.3.63,1.29,1.29,0,0,1,.3,1.12,4.77,4.77,0,0,1-.65,1.64,7.76,7.76,0,0,1-1,1.33,5.79,5.79,0,0,1-1.17,1,6.54,6.54,0,0,1-1.47.69,12,12,0,0,1-1.83.44q1.64.32,1.9,1.29a4.29,4.29,0,0,1-.85,2.91l-2.25,3.9Zm4.63-11.7-1.24,2.15h.92a2.08,2.08,0,0,0,1.07-.24,2.19,2.19,0,0,0,.75-.82c.24-.41.32-.69.24-.85s-.35-.23-.81-.23Z"/><path class="cls-1" d="M184,172.19l-1.75,3a6.59,6.59,0,0,1-1.15,1.49,5.4,5.4,0,0,1-1.51,1,8,8,0,0,1-2,.58,15.49,15.49,0,0,1-2.54.19h-8.69q-2.65,0-3.4-.78t.22-2.48l4.89-8.47a8.51,8.51,0,0,1,1.24-1.68,5.68,5.68,0,0,1,1.52-1.12,7,7,0,0,1,1.93-.62,13.88,13.88,0,0,1,2.47-.2h8.69a12.06,12.06,0,0,1,2.41.2,2.14,2.14,0,0,1,1.25.61q.69.82-.46,2.82l-1.15,2h-8.46l.64-1.1c.23-.4.31-.68.24-.85s-.3-.25-.67-.25a1.7,1.7,0,0,0-1,.26,2.46,2.46,0,0,0-.73.84l-3.64,6.31q-.33.58-.24.84t.66.26a1.92,1.92,0,0,0,1.71-1.1l1-1.75Z"/><path class="cls-1" d="M187.17,178.37l3.31-5.73-.73-9.42h8.13l.11,3.64,4.33-3.64h8.11l-11.61,9.42-3.31,5.73Z"/><path class="cls-1" d="M224.9,172.19l-1.75,3a6.61,6.61,0,0,1-1.15,1.49,5.4,5.4,0,0,1-1.51,1,8,8,0,0,1-2,.58,15.52,15.52,0,0,1-2.54.19h-8.69q-2.65,0-3.4-.78t.22-2.48l4.89-8.47a8.47,8.47,0,0,1,1.24-1.68,5.68,5.68,0,0,1,1.52-1.12,7.05,7.05,0,0,1,1.93-.62,13.89,13.89,0,0,1,2.47-.2h8.69a12.05,12.05,0,0,1,2.41.2,2.13,2.13,0,0,1,1.25.61q.69.82-.46,2.82l-1.15,2h-8.46l.64-1.1c.23-.4.31-.68.24-.85s-.3-.25-.67-.25a1.69,1.69,0,0,0-1,.26,2.46,2.46,0,0,0-.73.84l-3.64,6.31q-.33.58-.24.84c.06.17.28.26.66.26a1.92,1.92,0,0,0,1.71-1.1l1-1.75Z"/><path class="cls-1" d="M223.21,178.37,232,163.22h8.31l-6.76,11.7h5.12l-2,3.45Z"/><path class="cls-1" d="M238.11,178.37l8.75-15.15h16.51l-2,3.45h-8.18l-1,1.66h7.41l-2,3.45h-7.41l-1.81,3.14h8.18l-2,3.45Z"/><path class="cls-1" d="M261.85,178.48a5.84,5.84,0,0,1-3.48-.73q-.89-.73-.09-2.13l1.58-2.74h8.52l-.61,1.06q-.63,1.08.41,1.08a1.69,1.69,0,0,0,1-.27,2.65,2.65,0,0,0,.78-.91,4.29,4.29,0,0,0,.29-.59.62.62,0,0,0,0-.4.57.57,0,0,0-.26-.3,2.83,2.83,0,0,0-.6-.26l-4.82-1.66q-1.67-.58-2-1.23a2.1,2.1,0,0,1,.36-1.83l.94-1.62a5,5,0,0,1,2.54-2.12,11.3,11.3,0,0,1,4.32-.72h8.57a5.94,5.94,0,0,1,3.49.72q.9.72.09,2.12l-1,1.79h-8.46l.11-.19q.59-1-.5-1a1.79,1.79,0,0,0-.84.21,1.42,1.42,0,0,0-.58.54,1,1,0,0,0-.12.29.27.27,0,0,0,.07.23,1.13,1.13,0,0,0,.32.23,4.48,4.48,0,0,0,.64.27l5.55,2a2.66,2.66,0,0,1,.81.47,1.08,1.08,0,0,1,.36.63,1.83,1.83,0,0,1-.11.9,7.34,7.34,0,0,1-.59,1.23l-1,1.68a5.85,5.85,0,0,1-2.68,2.47,10.72,10.72,0,0,1-4.41.77Z"/><path class="cls-1" d="M79.61,154l4.15-7.18q.48-.83.38-1.17t-.91-.34H82.16l-5,8.69H67.47L79.63,132.9H95.29a10.36,10.36,0,0,1,2.7.29,2.44,2.44,0,0,1,1.43.88,2,2,0,0,1,.2,1.56,8.17,8.17,0,0,1-1,2.28,12.34,12.34,0,0,1-1.29,1.85,8.34,8.34,0,0,1-1.49,1.38,8,8,0,0,1-1.79,1,13,13,0,0,1-2.18.61q1.86.44,2,1.79t-1.38,4L89.43,154Zm6.93-16.26-1.72,3h1.07a2.27,2.27,0,0,0,1.27-.34,3.34,3.34,0,0,0,1-1.14q.49-.86.39-1.18t-.91-.32Z"/><path class="cls-1" d="M91.63,154l12.16-21.06H123l-2.77,4.8h-9.5L109.36,140H118l-2.77,4.8h-8.61l-2.52,4.36h9.5L110.8,154Z"/><path class="cls-1" d="M113.42,154l12.16-21.06h15.82a11.19,11.19,0,0,1,2.67.26,2.59,2.59,0,0,1,1.44.8,1.69,1.69,0,0,1,.26,1.41,6.84,6.84,0,0,1-.85,2.06l-6.6,11.44a10.32,10.32,0,0,1-3.64,4,7.61,7.61,0,0,1-2.35.84,15.87,15.87,0,0,1-3.09.27Zm12.46-4.82h1.07a2.27,2.27,0,0,0,1.29-.33,3.53,3.53,0,0,0,1-1.18l4.87-8.43q.49-.86.39-1.18t-.91-.32h-1.07Z"/><path class="cls-1" d="M137.55,154l12.16-21.06h9.65L150,149.16h5.95l-2.77,4.8Z"/><path class="cls-1" d="M154.85,154,167,132.9h9.67L164.52,154Z"/><path class="cls-1" d="M166.77,154l12.16-21.06h9.54l-1.21,8.69,5-8.69h8.82L188.94,154h-9.13l1.47-9.91L175.57,154Z"/><path class="cls-1" d="M191.19,154l12.16-21.06h19.17l-2.77,4.8h-9.5L208.92,140h8.6l-2.77,4.8h-8.6l-2.52,4.36h9.5l-2.77,4.8Z"/><path class="cls-1" d="M61.4,158.52c-3.65,6.32-11.73,11.44-18,11.44s-8.48-5.12-4.84-11.44,11.73-11.44,18-11.44S65,152.2,61.4,158.52Z"/></svg>