<svg id="Layer_1" data-name="Layer 1" xmlns="http://www.w3.org/2000/svg" xmlns:xlink="http://www.w3.org/1999/xlink" viewBox="0 0 400 400"><defs><style>.cls-1{fill:none;}.cls-2{fill:#fff;}.cls-3{clip-path:url(#clip-path);}.cls-4{fill:#ebebeb;}.cls-5{fill:#ff6d00;}.cls-6{clip-path:url(#clip-path-3);}.cls-7{clip-path:url(#clip-path-4);}.cls-8{fill:#adadad;}.cls-9{fill:#c65000;}</style><clipPath id="clip-path"><polygon class="cls-1" points="75.1 130.39 200.25 34.01 200.25 234.01 75.1 307.38 75.1 130.39"/></clipPath><clipPath id="clip-path-3"><polygon class="cls-1" points="200.24 34.01 325.4 130.39 325.4 307.38 200.24 234.01 200.24 34.01"/></clipPath><clipPath id="clip-path-4"><polygon class="cls-1" points="200.25 234.01 325.41 307.38 200.25 365.62 75.09 307.38 200.25 234.01"/></clipPath></defs><title>portfolioThumb_wide</title><rect class="cls-2" x="-47.5" y="-31.5" width="524" height="504"/><path d="M476-31V472H-47V-31H476m1-1H-48V473H477V-32Z"/><g class="cls-3"><polygon class="cls-4" points="75.1 307.38 200.25 234.01 200.25 34.01 75.1 130.39 75.1 307.38"/><polygon class="cls-5" points="133.86 179.04 200.25 136.63 200.25 134.13 200.25 131.63 133.86 179.04"/><g class="cls-3"><path class="cls-5" d="M133.86,141.48c.65,5.8,1,11.84,1.22,17.93s.34,12.3.34,18.57-.1,12.61-.33,19-.57,12.91-1.23,19.59c-.65-5.84-1-11.88-1.22-18s-.33-12.28-.33-18.53.11-12.57.34-19,.57-12.91,1.22-19.63"/></g></g><g class="cls-6"><polygon class="cls-5" points="200.24 234.01 325.4 307.38 325.4 130.39 200.24 34.01 200.24 234.01"/><polygon class="cls-4" points="254.01 142.43 325.4 194.99 325.4 190.56 254.01 142.43"/><polygon class="cls-4" points="200.24 167.01 278.96 215.68 200.24 162.01 200.24 167.01"/></g><g class="cls-7"><polygon class="cls-8" points="75.09 307.38 200.25 365.62 325.41 307.38 200.25 234.01 75.09 307.38"/><polygon class="cls-9" points="224.72 320.08 235 349.45 259.42 338.09 224.72 320.08"/><g class="cls-7"><path class="cls-9" d="M219.81,283.7c3.88,1.39,7.41,3,10.82,4.56s6.61,3.27,9.71,5,6,3.45,8.83,5.25a70.62,70.62,0,0,1,7.72,5.63c-3.68-1.3-7-2.78-10.33-4.31s-6.46-3.17-9.54-4.87-6.1-3.47-9-5.32a78.78,78.78,0,0,1-8.22-5.92"/><polygon class="cls-9" points="139.51 337.36 187.88 313.8 142.63 338.81 139.51 337.36"/></g></g></svg>