<svg id="Layer_1" data-name="Layer 1" xmlns="http://www.w3.org/2000/svg" viewBox="0 0 50 50"><defs><style>.cls-1{fill:#aeaeae;}.cls-2{fill:#c55327;}</style></defs><title>r</title><rect class="cls-1" width="50" height="50"/><polygon class="cls-2" points="50 35 35 25 50 25 50 35"/><polygon class="cls-2" points="24.38 50 25 30 25.63 50 24.38 50"/><path class="cls-2" d="M20,12a9.57,9.57,0,0,1,3.5-2A11.57,11.57,0,0,1,27,9.5a11.4,11.4,0,0,1,3.5.53A9.47,9.47,0,0,1,34,12a9.47,9.47,0,0,1-3.5,2,11.4,11.4,0,0,1-3.5.53A11.57,11.57,0,0,1,23.5,14,9.57,9.57,0,0,1,20,12Z"/><polygon class="cls-2" points="22.5 50 25 31 27.5 50 22.5 50"/></svg>