<svg id="Layer_1" data-name="Layer 1" xmlns="http://www.w3.org/2000/svg" viewBox="0 0 200 200"><defs><style>.cls-1{fill:#adadad;}.cls-2{fill:#c65000;}</style></defs><title>R_letter</title><rect class="cls-1" width="200" height="200"/><polygon class="cls-2" points="200 140 140 100 200 100 200 140"/><path class="cls-2" d="M80,50a119,119,0,0,1,15-2c5-.37,10-.54,15-.54s10,.17,15,.53a117.51,117.51,0,0,1,15,2,117.51,117.51,0,0,1-15,2q-7.5.55-15,.53c-5,0-10-.17-15-.54A119,119,0,0,1,80,50Z"/><polygon class="cls-2" points="97.5 200 100 120 102.5 200 97.5 200"/></svg>