<svg id="Layer_1" data-name="Layer 1" xmlns="http://www.w3.org/2000/svg" viewBox="0 0 780 280"><defs><style>.cls-1{fill:#fff;}.cls-2{fill:none;}.cls-3{fill:#a71f24;}.cls-4{fill:#231f20;}</style></defs><title>redlinemotorcyclesThumb_wide</title><rect class="cls-1" x="-23" y="-16" width="836" height="324"/><path class="cls-2" d="M893,161H749L507,281l-92,92L689,493s156,12,158,6,74-240,74-240Z"/><path class="cls-3" d="M663,179c0-6-2.73-6.34-12.76-6.32l-419.76,1.1c-2.81,0-6.56,2.66-8.41,5.94h0c-1.85,3.27-1.12,6,1.66,6,0,0,321-.76,427.28-.76C661,185,663,185,663,179Z"/><path d="M129.33,225.4l-13.15,3.13c-5.46,14.09-7.82,27.74-7,40.47L135,257l23.08-10.72c-3-18.66,5-40.35,22.48-62.37,11.74-14.81,27.49-29.45,46.43-43.07a338.4,338.4,0,0,1,32.33-20.5c36.6-20.48,78.94-36,120.8-42.91,48.27-8,90.68-3.76,115.62,14.47,19.81,14.48,25.84,35.83,16.46,61.32l159.34-22.6c3.61-12.84,4.47-24.9,2.75-36l-60.06,14.57a8,8,0,0,1-1.21.2c-1.13.09-2-.13-2-.6-.08-.63,1.24-1.48,2.94-1.9L674,92.2c-4.8-25.2-22.63-44.67-49.87-57.7L536.17,75a11.47,11.47,0,0,1-3.15.94,3.63,3.63,0,0,1-2.23-.21c-.87-.56.1-1.79,2.18-2.75l87-40.34c-25.4-11.17-57.65-16.79-94-17l-27,20a6.31,6.31,0,0,1-2.35,1,3.15,3.15,0,0,1-.68.07c-.83,0-.82-.55,0-1.17L522.76,15.6c-31.51.12-65.74,4.27-101.28,12.24l-26,32.85a7,7,0,0,1-3.67,2c-1.35.25-1.89-.23-1.23-1.07L416.41,29a609.1,609.1,0,0,0-91.58,29.29l-2.57,11.23c-.08.37-.74.89-1.46,1.18a2.81,2.81,0,0,1-.49.15c-.45.09-.73,0-.66-.29l2.59-11.21a588.43,588.43,0,0,0-74,36.87l8.27,14.59c.23.41-.4,1.2-1.41,1.78a4.08,4.08,0,0,1-1.41.52c-.4.05-.71,0-.82-.22l-8.08-14.62a462.08,462.08,0,0,0-58.18,41.11l8.3,3.23c.28.11.15.5-.29.87a2.11,2.11,0,0,1-1.06.5.55.55,0,0,1-.25,0L185,140.76a307.78,307.78,0,0,0-41.3,41.84l24,.06c.67,0,.8.53.29,1.18a3.17,3.17,0,0,1-2.14,1.16l-23.93-.2c-11.49,14.67-19.85,28.9-25.26,42.41l13.15-3.16c.45-.11.7.1.56.47A1.67,1.67,0,0,1,129.33,225.4Z"/><path class="cls-3" d="M643.5,183.37c14.09-18.37,23.38-36.1,28.07-52.76l-159.34,22.6c-3.53,9.59-9.24,19.62-17,29.87Z"/><path d="M234.31,178.16c6.08-10.77,3.4-19.35-5.73-19.15-8.87.19-20.55,8.62-26.31,18.84s-3.68,18.79,4.88,19.15C216,197.36,228.23,188.93,234.31,178.16Z"/><path class="cls-4" d="M264.6,169l9.63-17.46a6.76,6.76,0,0,0,1.08-2.84q0-.82-1.37-.82h-1.77L260.53,169h-16l28.23-51.19h25.9a11.1,11.1,0,0,1,4.35.69,3.39,3.39,0,0,1,2,2.14,6.65,6.65,0,0,1-.27,3.78A30.1,30.1,0,0,1,302.3,130a40.82,40.82,0,0,1-2.85,4.51,22.45,22.45,0,0,1-3,3.34,16,16,0,0,1-3.34,2.33,19.46,19.46,0,0,1-3.84,1.48A3.9,3.9,0,0,1,292,146q-.22,3.28-3.84,9.84L280.85,169Zm17.73-39.53-4,7.25h1.77a3.37,3.37,0,0,0,2.23-.82,9.92,9.92,0,0,0,2-2.77,6.75,6.75,0,0,0,1.1-2.87q0-.79-1.38-.79Z"/><path class="cls-4" d="M284.48,169l28.23-51.19h31.7L338,129.49H322.28l-3.09,5.61h14.23L327,146.76H312.75l-5.84,10.59h15.71L316.18,169Z"/><path class="cls-4" d="M320.5,169l28.23-51.19h26.15a12,12,0,0,1,4.32.63,3.4,3.4,0,0,1,2.07,2,5.56,5.56,0,0,1-.11,3.44,25.18,25.18,0,0,1-2.21,5l-15.33,27.8q-3.79,6.87-7.55,9.65a12.58,12.58,0,0,1-4.21,2,19.29,19.29,0,0,1-5.21.66ZM343,157.29h1.77a3.35,3.35,0,0,0,2.25-.79,10.71,10.71,0,0,0,2.07-2.87l11.3-20.49a6.75,6.75,0,0,0,1.1-2.87q0-.79-1.38-.79H358.3Z"/><path class="cls-4" d="M360.42,169l28.23-51.19h16l-21.8,39.53h9.83L386.21,169Z"/><path class="cls-4" d="M389,169l28.23-51.19h16L405,169Z"/><path class="cls-4" d="M408.72,169,437,117.82h15.78l-5.34,21.12L459,117.82h14.59L445.39,169H430.3l6.26-24.08L423.27,169Z"/><path class="cls-4" d="M449.1,169l28.23-51.19H509l-6.43,11.66H486.89l-3.09,5.61H498l-6.43,11.66h-14.2l-5.84,10.59h15.71L480.8,169Z"/><path class="cls-4" d="M224.32,241.6l11.15-29.25-16.9,29.25H204.83l30.68-53.14H255l-8.45,22.05,17-22.05h19.59L252.47,241.6H238.69l16.89-29.25L233,241.6Z"/><path class="cls-4" d="M265,242a9.2,9.2,0,0,1-4-.69,2.8,2.8,0,0,1-1.62-2.23,8.39,8.39,0,0,1,.67-4,40,40,0,0,1,2.9-5.89l17.19-29.77a26.79,26.79,0,0,1,7.23-8.64,14.69,14.69,0,0,1,8.7-2.68h16.11a11.14,11.14,0,0,1,4.15.62,3,3,0,0,1,1.89,2,6.2,6.2,0,0,1-.32,3.53,28.56,28.56,0,0,1-2.45,5.17l-17.19,29.77q-4.08,7.07-7.9,9.95a12.77,12.77,0,0,1-4.2,2.13,17.87,17.87,0,0,1-5.08.69Zm28.25-38-12.77,22.12a8.21,8.21,0,0,0-1.23,2.91q-.06.88,1,.88a3,3,0,0,0,2-.88,12.26,12.26,0,0,0,2.15-2.91L297.2,204q2.23-3.86.25-3.86a3,3,0,0,0-2,.92,13,13,0,0,0-2.19,2.94Z"/><path class="cls-4" d="M302,241.6l23.69-41h-7.93l7-12.11H356l-7,12.11h-7.93l-23.69,41Z"/><path class="cls-4" d="M337.54,242a9.2,9.2,0,0,1-4-.69,2.8,2.8,0,0,1-1.62-2.23,8.39,8.39,0,0,1,.67-4,40,40,0,0,1,2.9-5.89l17.19-29.77a26.79,26.79,0,0,1,7.23-8.64,14.69,14.69,0,0,1,8.7-2.68h16.11a11.14,11.14,0,0,1,4.15.62,3,3,0,0,1,1.89,2,6.21,6.21,0,0,1-.32,3.53,28.49,28.49,0,0,1-2.45,5.17L370.8,229.19q-4.08,7.07-7.9,9.95a12.76,12.76,0,0,1-4.2,2.13,17.87,17.87,0,0,1-5.08.69Zm28.25-38L353,226.09a8.21,8.21,0,0,0-1.23,2.91q-.06.88,1,.88a3,3,0,0,0,2-.88,12.26,12.26,0,0,0,2.15-2.91L369.72,204q2.23-3.86.25-3.86a3,3,0,0,0-2,.92A13,13,0,0,0,365.79,204Z"/><path class="cls-4" d="M386.45,241.6l10.46-18.13a7.8,7.8,0,0,0,1.23-2.94q0-.85-1.27-.85h-1.71L382.52,241.6H367.07l30.68-53.14h25a9.72,9.72,0,0,1,4.16.72,3.14,3.14,0,0,1,1.81,2.22,7.5,7.5,0,0,1-.51,3.93,34.93,34.93,0,0,1-2.77,5.76,46.79,46.79,0,0,1-3,4.68,25,25,0,0,1-3.12,3.47,16.87,16.87,0,0,1-3.38,2.42,19.35,19.35,0,0,1-3.81,1.54q2.73,1.11,2.3,4.52T410,227.92l-7.9,13.68Zm19.76-41-4.35,7.53h1.71a3.33,3.33,0,0,0,2.21-.85A11.29,11.29,0,0,0,408,204.4a7.8,7.8,0,0,0,1.25-3c0-.54-.43-.82-1.29-.82Z"/><path class="cls-4" d="M453.24,219.94l-6.12,10.6a38.17,38.17,0,0,1-3.56,5.24,19.07,19.07,0,0,1-3.76,3.53,14.46,14.46,0,0,1-4.22,2,17.38,17.38,0,0,1-4.88.65H414.58q-4.91,0-5.56-2.75t2.78-8.7L429,200.83a50.29,50.29,0,0,1,3.9-5.89,21.81,21.81,0,0,1,3.88-3.93,13.66,13.66,0,0,1,4.17-2.19,15.83,15.83,0,0,1,4.76-.69h16.11a10.75,10.75,0,0,1,4.28.69,2.71,2.71,0,0,1,1.75,2.13q.5,2.88-3.55,9.88l-4,7H444.54l2.23-3.86a8.13,8.13,0,0,0,1.25-3q0-.88-1-.88a3,3,0,0,0-2,.92,13,13,0,0,0-2.15,2.95L430.1,226.08a8.53,8.53,0,0,0-1.25,2.95c0,.61.27.92,1,.92q2,0,4.21-3.86l3.55-6.15Z"/><path class="cls-4" d="M453.3,241.6l11.6-20.09,7.63-33H487.6l-3.26,12.76,11.51-12.76h15l-30.53,33-11.6,20.09Z"/><path class="cls-4" d="M529.18,219.94l-6.12,10.6a38.17,38.17,0,0,1-3.56,5.24,19.07,19.07,0,0,1-3.76,3.53,14.46,14.46,0,0,1-4.22,2,17.38,17.38,0,0,1-4.88.65H490.52q-4.91,0-5.56-2.75t2.78-8.7l17.15-29.71a50.29,50.29,0,0,1,3.9-5.89,21.81,21.81,0,0,1,3.88-3.93,13.66,13.66,0,0,1,4.17-2.19,15.83,15.83,0,0,1,4.76-.69h16.11a10.75,10.75,0,0,1,4.28.69,2.71,2.71,0,0,1,1.75,2.13q.5,2.88-3.55,9.88l-4,7H520.47l2.23-3.8a8.13,8.13,0,0,0,1.25-3q0-.88-1-.88a3,3,0,0,0-2,.92A13,13,0,0,0,518.8,204L506,226.09a8.53,8.53,0,0,0-1.25,2.95c0,.61.27.92,1,.92q2,0,4.21-3.86l3.55-6.15Z"/><path class="cls-4" d="M520.15,241.6l30.68-53.14h15.42l-23.69,41h9.5l-7,12.11Z"/><path class="cls-4" d="M547.78,241.6l30.68-53.14h30.62l-7,12.11H586.92l-3.36,5.82H597.3l-7,12.11H576.57l-6.35,11h15.17l-7,12.11Z"/><path class="cls-4" d="M591.72,242q-4.8,0-5.76-2.55t1.87-7.46l5.55-9.62h15.8L607,226.09q-2.19,3.8-.28,3.8a3,3,0,0,0,2-.95,14.12,14.12,0,0,0,2.3-3.17q.72-1.24,1.1-2.06a4.52,4.52,0,0,0,.45-1.41,1.71,1.71,0,0,0-.2-1,3.12,3.12,0,0,0-.86-.92l-7.36-5.82q-2.55-2-2.52-4.32t2.42-6.41l3.29-5.69a21.27,21.27,0,0,1,6.72-7.43,15.65,15.65,0,0,1,8.69-2.52h15.9q4.8,0,5.78,2.52t-1.85,7.43L639,204.37H623.3l.38-.65q2.08-3.6.06-3.6a2.89,2.89,0,0,0-1.75.72,6.47,6.47,0,0,0-1.6,1.9,6.83,6.83,0,0,0-.5,1,1.52,1.52,0,0,0-.09.82,2.07,2.07,0,0,0,.36.82,4.92,4.92,0,0,0,.93.95l8.38,7.07a3.8,3.8,0,0,1,1.06,1.64,4.7,4.7,0,0,1,0,2.22,13.81,13.81,0,0,1-1.06,3.14q-.83,1.83-2.27,4.32l-3.4,5.89a26.55,26.55,0,0,1-7.32,8.67A15.18,15.18,0,0,1,607.6,242Z"/></svg>